<svg width="24" height="24" viewBox="0 0 24 24" fill="none" xmlns="http://www.w3.org/2000/svg">
<path d="M19.9454 21.021L19.6027 19.6494C19.5202 19.3194 19.2232 19.088 18.8831 19.0884H18.6855V4.70011L19.8913 3.09243C19.9632 2.99639 19.975 2.86778 19.9213 2.76032C19.8676 2.65286 19.7576 2.58475 19.6374 2.58475H5.63178C5.45663 2.58475 5.31448 2.7269 5.31448 2.90205V19.0884H5.11606C4.77592 19.088 4.47935 19.3194 4.39685 19.6494L4.05459 21.021C4.0309 21.1157 4.05248 21.216 4.11255 21.293C4.17263 21.3704 4.26485 21.4153 4.36258 21.4153H19.6374C19.7351 21.4153 19.8273 21.3704 19.8874 21.293C19.9475 21.216 19.9691 21.1157 19.9454 21.021ZM5.94906 3.21931H19.0028L18.1144 4.40395C18.0734 4.45895 18.0509 4.5258 18.0509 4.59433V19.0884H5.94906C5.94906 8.24998 5.94906 10.2098 5.94906 3.21931ZM4.76876 20.7806L5.01329 19.8033C5.02514 19.756 5.06744 19.723 5.11609 19.723H18.8839C18.9326 19.723 18.9749 19.756 18.9867 19.8033L19.2312 20.7806H4.76876Z" fill="currentColor"/>
<rect x="5.54953" y="8.62085" width="5.64963" height="0.557983" rx="0.278992" fill="currentColor"/>
<rect x="5.54953" y="5.69113" width="5.64963" height="0.557983" rx="0.278992" fill="currentColor"/>
<rect x="5.54953" y="10.0856" width="3.34793" height="0.557983" rx="0.278992" fill="currentColor"/>
<rect x="5.54953" y="7.15585" width="3.34793" height="0.557983" rx="0.278992" fill="currentColor"/>
<rect x="5.54953" y="11.5847" width="5.64963" height="0.557983" rx="0.278992" fill="currentColor"/>
<rect x="5.54953" y="13.0497" width="3.34793" height="0.557983" rx="0.278992" fill="currentColor"/>
<rect x="5.54953" y="14.5147" width="12.9573" height="0.557983" rx="0.278992" fill="currentColor"/>
<rect x="5.54953" y="15.9797" width="3.34793" height="0.557983" rx="0.278992" fill="currentColor"/>
<rect x="5.54953" y="17.4447" width="5.48346" height="0.557983" rx="0.278992" fill="currentColor"/>
<circle cx="9.69395" cy="16.2664" r="0.271347" fill="currentColor"/>
<circle cx="15.0324" cy="16.2664" r="0.271347" fill="currentColor"/>
<circle cx="15.0324" cy="17.7161" r="0.271347" fill="currentColor"/>
<circle cx="16.1001" cy="16.2664" r="0.271347" fill="currentColor"/>
<circle cx="11.8293" cy="16.2664" r="0.271347" fill="currentColor"/>
<circle cx="17.1678" cy="16.2664" r="0.271347" fill="currentColor"/>
<circle cx="12.897" cy="16.2664" r="0.271347" fill="currentColor"/>
<circle cx="13.9647" cy="16.2664" r="0.271347" fill="currentColor"/>
<circle cx="10.7616" cy="16.2664" r="0.271347" fill="currentColor"/>
<circle cx="16.1001" cy="17.7161" r="0.271347" fill="currentColor"/>
<circle cx="11.8293" cy="17.7161" r="0.271347" fill="currentColor"/>
<circle cx="17.1678" cy="17.7161" r="0.271347" fill="currentColor"/>
<circle cx="12.897" cy="17.7161" r="0.271347" fill="currentColor"/>
<circle cx="13.9647" cy="17.7161" r="0.271347" fill="currentColor"/>
</svg>
