<svg width="24" height="24" viewBox="0 0 24 24" fill="none" xmlns="http://www.w3.org/2000/svg">
<path d="M16.9021 7.75119C16.5025 7.75119 16.1157 7.80621 15.7449 7.89857V5.66037C15.7449 4.80557 15.0428 4.10992 14.18 4.10992H12.5944C12.4724 3.70609 12.0986 3.40936 11.6513 3.40936H10.5764C10.385 2.83261 9.83662 2.41406 9.19107 2.41406C8.54553 2.41406 7.99713 2.83165 7.80575 3.40936H6.73079C6.28356 3.40936 5.9097 3.70609 5.78775 4.10992H4.2021C3.33937 4.10992 2.63727 4.80555 2.63727 5.66037V18.8636C2.63727 19.7184 3.33935 20.4141 4.2021 20.4141H14.1801C15.0429 20.4141 15.745 19.7184 15.745 18.8636V16.985C16.1158 17.0783 16.5026 17.1324 16.9022 17.1324C19.5132 17.1324 21.6373 15.0278 21.6373 12.4409C21.6373 9.85394 19.5132 7.75036 16.9022 7.75036L16.9021 7.75119ZM6.6494 4.39001C6.6494 4.34481 6.6861 4.30846 6.73171 4.30846H8.64063V3.85943C8.64063 3.55878 8.88755 3.31314 9.191 3.31314C9.49444 3.31314 9.74236 3.55779 9.74236 3.85943V4.30846H11.6513C11.6969 4.30846 11.7326 4.34481 11.7326 4.39001V5.3018C11.7326 5.347 11.6959 5.38335 11.6513 5.38335H6.73067C6.68505 5.38335 6.64836 5.347 6.64836 5.3018V4.39001H6.6494ZM14.8375 18.8647C14.8375 19.2243 14.5419 19.5161 14.18 19.5161L4.20197 19.5171C3.83903 19.5171 3.54452 19.2243 3.54452 18.8657V5.66147C3.54452 5.30186 3.84004 5.01006 4.20197 5.01006H5.742V5.30188C5.742 5.84227 6.18527 6.28146 6.73067 6.28146H11.6513C12.1967 6.28146 12.6399 5.84227 12.6399 5.30188V5.01006H14.18C14.5429 5.01006 14.8374 5.30286 14.8374 5.66147V8.22781C14.1611 8.55402 13.575 9.03447 13.1258 9.62498C12.6994 8.9775 11.9676 8.54419 11.1306 8.54419C10.3333 8.54419 9.62629 8.9323 9.19097 9.52771C8.75565 8.9323 8.04859 8.54419 7.2523 8.54419C5.93341 8.54419 4.86044 9.6073 4.86044 10.9141C4.86044 11.4869 5.07166 12.041 5.45146 12.4704L9.19186 16.7995L12.2451 13.2662C12.5138 14.7626 13.4995 16.0124 14.8383 16.6589V18.8656L14.8375 18.8647ZM9.19107 15.417L6.13584 11.8818C5.89785 11.6126 5.76696 11.2687 5.76696 10.913C5.76696 10.1014 6.43334 9.44116 7.25245 9.44116C8.07157 9.44116 8.73795 10.1014 8.73795 10.913H9.64432C9.64432 10.1014 10.3107 9.44116 11.1298 9.44116C11.826 9.44116 12.407 9.91965 12.5667 10.5603C12.3753 10.9906 12.2464 11.4544 12.1939 11.9407L9.19016 15.4169L9.19107 15.417ZM16.9021 16.2355C14.7909 16.2355 13.0744 14.5337 13.0744 12.4429C13.0744 10.3511 14.7919 8.65038 16.9021 8.65038C19.0133 8.65038 20.7299 10.3521 20.7299 12.4429C20.7299 14.5347 19.0123 16.2355 16.9021 16.2355Z" fill="currentColor"/>
<path d="M16.2376 13.0441L15.3233 12.1392L14.6827 12.7739L16.2376 14.3145L19.0261 11.5507L18.3855 10.916L16.2376 13.0441Z" fill="currentColor"/>
</svg>
