<svg width="24" height="24" viewBox="0 0 24 24" fill="none" xmlns="http://www.w3.org/2000/svg">
<path d="M8.94392 14.6209C8.94982 14.3779 9.0118 14.1339 9.13774 13.9111L11.8386 9.11658L11.2413 9.26782C10.8507 9.43318 10.4228 9.35252 10.1109 9.15288C9.7793 8.94113 9.53136 8.60939 9.42709 8.20807C9.22244 7.42765 9.66912 6.61493 10.4169 6.38101C11.7913 5.8335 13.7866 4.53075 15.8419 4.62956C16.4549 4.6588 16.9635 4.84131 17.4466 5.09037C17.9287 5.33942 18.396 5.64999 19.0129 5.98879C19.7007 6.36689 20.4799 6.95174 21.0132 7.70493C21.5474 8.45815 21.817 9.48661 21.2867 10.4284L17.7761 16.6599C17.3737 17.3748 16.4675 17.6229 15.771 17.2105C15.6214 17.1217 15.4935 17.0078 15.3873 16.8787L15.3154 17.0058C14.913 17.7196 14.0069 17.9687 13.3103 17.5573C13.1608 17.4686 13.0329 17.3546 12.9266 17.2256L12.906 17.2619C12.5035 17.9767 11.5974 18.2248 10.9008 17.8124C10.3273 17.4726 10.0616 16.7839 10.2102 16.1517C10.0262 16.1265 9.84416 16.066 9.67493 15.9662C9.1958 15.6828 8.93112 15.1553 8.94392 14.6209ZM9.91206 14.7006C9.9219 14.8609 10.0095 15.0111 10.162 15.1019C10.406 15.2461 10.6952 15.1674 10.8369 14.9174C10.9737 14.6834 11.2688 14.6058 11.4981 14.7419C11.7283 14.879 11.809 15.1795 11.6791 15.4175L11.6781 15.4195L11.2068 16.2564C11.0661 16.5065 11.1439 16.8039 11.3879 16.9481C11.6319 17.0923 11.9221 17.0137 12.0628 16.7626L12.7722 15.5032L12.7732 15.5022C12.9099 15.2693 13.2031 15.1916 13.4333 15.3278C13.6636 15.4629 13.7452 15.7633 13.6163 16.0013C13.4756 16.2504 13.5544 16.5468 13.7984 16.692C14.0424 16.8362 14.3316 16.7565 14.4733 16.5065L15.2338 15.1563L15.2328 15.1563C15.3696 14.9224 15.6647 14.8438 15.895 14.9799C16.1252 15.116 16.2059 15.4175 16.077 15.6555C15.9363 15.9045 16.014 16.201 16.259 16.3462C16.503 16.4903 16.7933 16.4107 16.934 16.1606L20.4445 9.92915C20.7662 9.35745 20.6295 8.85934 20.2261 8.29063C19.8227 7.72194 19.134 7.18754 18.5535 6.8679C17.9012 6.50895 17.4231 6.19535 17.0098 5.98159C16.5966 5.76783 16.2582 5.64884 15.7977 5.62666C14.1979 5.54902 12.303 6.70154 10.7681 7.31255L10.7681 7.31154C10.7514 7.3186 10.7346 7.32364 10.7169 7.32868C10.4444 7.4033 10.2949 7.66949 10.3677 7.94879C10.4031 8.08491 10.5133 8.23314 10.6254 8.30472C10.7376 8.37631 10.8045 8.38135 10.8812 8.34203L10.8822 8.34203C10.9137 8.3259 10.9472 8.31279 10.9816 8.30371L12.7152 7.86309L12.7162 7.86409C12.9051 7.8157 13.1048 7.88829 13.2219 8.04761C13.3389 8.20793 13.3517 8.4237 13.2543 8.59714L9.98101 14.4081C9.92788 14.5019 9.90624 14.6027 9.91214 14.6985L9.91206 14.7006Z" fill="currentColor"/>
<path d="M10.775 15.1028C10.7839 15.0383 10.8045 14.9758 10.836 14.9183L12.669 11.6654C12.7329 11.5514 12.8392 11.4678 12.9641 11.4335C13.0891 11.3992 13.2219 11.4163 13.3341 11.4829C13.5663 11.621 13.646 11.9255 13.5122 12.1645L11.6792 15.4174C11.6153 15.5324 11.509 15.6161 11.384 15.6504C11.2591 15.6846 11.1263 15.6665 11.0141 15.5999C10.8439 15.4991 10.7494 15.3025 10.775 15.1028Z" fill="currentColor"/>
<path d="M12.4741 16.1083C12.483 16.0437 12.5037 15.9812 12.5351 15.9248L14.3681 12.6718C14.433 12.5569 14.5393 12.4732 14.6633 12.4389C14.7882 12.4046 14.921 12.4228 15.0332 12.4883C15.2664 12.6264 15.3461 12.932 15.2113 13.1699L13.3783 16.4229L13.3793 16.4229C13.3144 16.5378 13.2081 16.6215 13.0832 16.6558C12.9582 16.6901 12.8254 16.6719 12.7142 16.6064C12.543 16.5055 12.4486 16.3089 12.4741 16.1083Z" fill="currentColor"/>
<path d="M15.173 15.3409C15.1809 15.2763 15.2015 15.2138 15.234 15.1564L16.3585 13.1599C16.4225 13.0459 16.5288 12.9623 16.6537 12.928C16.7787 12.8937 16.9115 12.9118 17.0237 12.9774C17.2559 13.1155 17.3365 13.42 17.2017 13.659L16.0772 15.6555C16.0123 15.7704 15.906 15.8541 15.781 15.8884C15.6571 15.9227 15.5233 15.9045 15.4121 15.838C15.2409 15.7371 15.1464 15.5415 15.173 15.3409Z" fill="currentColor"/>
<path d="M8.24842 11.7966C8.25433 11.5536 8.31631 11.3096 8.44225 11.0867L9.90428 8.49124L9.90428 8.49023C9.96922 8.37629 10.0755 8.29261 10.2004 8.25832C10.3244 8.22404 10.4582 8.24219 10.5694 8.30773C10.8026 8.44587 10.8822 8.7514 10.7475 8.98934L9.28542 11.5848C9.14473 11.8349 9.22245 12.1323 9.46645 12.2765C9.70947 12.4207 9.99775 12.3411 10.1414 12.091L10.1424 12.091C10.2781 11.854 10.5763 11.7744 10.8084 11.9135C11.0406 12.0537 11.1184 12.3592 10.9816 12.5972C10.5762 13.305 9.67503 13.553 8.97943 13.1417C8.5003 12.8583 8.23563 12.331 8.24842 11.7966ZM8.68331 4.93604C8.70889 4.31289 9.11622 3.74622 9.72227 3.55665C11.0967 3.00914 13.0921 1.70538 15.1473 1.8052C15.7603 1.83444 16.2689 2.01694 16.751 2.26601C17.2331 2.51506 17.7005 2.82563 18.3174 3.16443C19.2993 3.7049 20.5114 4.64464 20.8243 5.95247C20.8282 5.9676 20.9355 6.36589 20.9227 6.8045C20.9187 6.94567 20.8971 7.0848 20.8676 7.24714C20.8528 7.32781 20.8371 7.40847 20.8184 7.4851C20.7997 7.56173 20.7957 7.61618 20.7239 7.74323L20.7239 7.74222C20.66 7.85717 20.5527 7.94086 20.4288 7.97514C20.3038 8.00943 20.171 7.99128 20.0588 7.92574C19.8256 7.7876 19.7459 7.4831 19.8807 7.24412C19.8374 7.32075 19.864 7.27941 19.8748 7.23706C19.8856 7.19471 19.8984 7.1322 19.9102 7.06767C19.9329 6.93961 19.9496 6.77627 19.9496 6.77325C19.9565 6.5373 19.8807 6.19548 19.8807 6.19548L19.8797 6.19548C19.8797 6.19346 19.8788 6.19245 19.8788 6.19043C19.6928 5.41504 18.6873 4.50049 17.8579 4.04474C17.2056 3.68579 16.7274 3.37219 16.3142 3.15843C15.901 2.94468 15.5625 2.82568 15.1021 2.80351C13.5023 2.72587 11.6074 3.87838 10.0725 4.48939L10.0725 4.48839C10.0557 4.49444 10.039 4.50049 10.0213 4.50553C9.74877 4.58014 9.59921 4.84533 9.67202 5.12563C9.70744 5.26175 9.81763 5.40998 9.92979 5.48156C10.0419 5.55315 10.1098 5.5582 10.1856 5.51887L10.1866 5.51786C10.2181 5.50173 10.2515 5.48963 10.2869 5.48055L12.0205 5.03993C12.1455 5.00867 12.2783 5.02884 12.3885 5.0974C12.4996 5.16597 12.5793 5.27588 12.6098 5.40494C12.6413 5.53299 12.6207 5.66911 12.5547 5.78204C12.4878 5.89598 12.3796 5.97664 12.2547 6.00891L10.5467 6.44249C10.1561 6.60785 9.72809 6.52718 9.4162 6.32754C9.08464 6.1158 8.83669 5.78405 8.73242 5.38274C8.69306 5.23351 8.67831 5.08225 8.68421 4.93504L8.68331 4.93604Z" fill="currentColor"/>
<path d="M2.57436 14.0068C2.58715 12.9834 3.00728 11.9832 3.70778 11.2996L3.70778 11.2986C3.80125 11.2078 3.9262 11.1584 4.05607 11.1614C4.18496 11.1645 4.30696 11.2199 4.3965 11.3157C4.48603 11.4115 4.53424 11.5406 4.5303 11.6727C4.52735 11.8047 4.47324 11.9308 4.37977 12.0215C3.72944 12.6568 3.3841 13.8163 3.6399 14.759L3.64088 14.759C3.71271 15.0242 3.56119 15.2995 3.30242 15.3731C3.04269 15.4467 2.77407 15.2914 2.70226 15.0262C2.61076 14.6904 2.57042 14.3476 2.57436 14.0058L2.57436 14.0068Z" fill="currentColor"/>
<path d="M4.4644 14.2288C4.49982 13.0985 5.11868 12.0488 6.09665 11.4973C6.00121 11.3027 5.92545 11.099 5.87036 10.8873C5.42072 9.1691 6.42329 7.39039 8.09982 6.93066L8.09982 6.92966C8.35955 6.85807 8.62618 7.01637 8.69605 7.28257C8.7659 7.54875 8.61143 7.82201 8.35169 7.89361C7.18384 8.21426 6.49807 9.43128 6.81094 10.6282C6.88572 10.9146 7.01657 11.1838 7.19366 11.4177L7.19366 11.4187C7.29107 11.5468 7.32058 11.7172 7.27336 11.8725C7.22613 12.0278 7.10807 12.1508 6.95655 12.2002C5.84182 12.5632 5.2092 13.7479 5.51124 14.9054C5.79656 15.9974 6.82372 16.6951 7.91583 16.5388L7.91583 16.5378C8.15294 16.5035 8.37824 16.6518 8.44811 16.8867C8.79247 18.0432 9.95737 18.7047 11.0958 18.3921L11.0968 18.3911C11.3565 18.3205 11.6231 18.4778 11.693 18.744C11.7619 19.0102 11.6084 19.2845 11.3486 19.3551C9.84134 19.7685 8.28084 18.979 7.65822 17.5532C6.23555 17.5734 4.94657 16.6013 4.56977 15.1625C4.48811 14.8509 4.45456 14.5363 4.4644 14.2288Z" fill="currentColor"/>
<path d="M4.02969 20.1658C4.02969 19.7453 4.18416 19.3259 4.49409 19.0082C5.11294 18.374 6.13224 18.373 6.75207 19.0062L6.75108 19.0072C6.75207 19.0072 6.75207 19.0082 6.75305 19.0082C7.37288 19.6435 7.37288 20.6881 6.75305 21.3234C6.13322 21.9586 5.11392 21.9586 4.49407 21.3234C4.18414 21.0057 4.02967 20.5863 4.02869 20.1658L4.02969 20.1658ZM4.99783 20.1658C4.99783 20.3281 5.05982 20.4905 5.18379 20.6175C5.43172 20.8716 5.81838 20.8716 6.06534 20.6175C6.31229 20.3644 6.31327 19.9682 6.06632 19.7151L6.06534 19.7151L6.06435 19.7151C5.81641 19.461 5.42976 19.461 5.1828 19.7151C5.05883 19.8421 4.99685 20.0045 4.99685 20.1668L4.99783 20.1658Z" fill="currentColor"/>
<path d="M4.05506 5.89901C4.05506 5.54207 4.18689 5.18412 4.45057 4.91489C4.97693 4.37546 5.84571 4.37546 6.37207 4.91489L6.37108 4.91388C6.37108 4.91489 6.37207 4.91489 6.37207 4.9159C6.89745 5.45534 6.89745 6.34469 6.37108 6.88413C5.84472 7.42357 4.97595 7.42357 4.44958 6.88413C4.1859 6.6139 4.05506 6.25695 4.05506 5.89901ZM5.0232 5.89901C5.0232 5.99883 5.06157 6.09865 5.1393 6.1783C5.29376 6.33661 5.52891 6.33661 5.68339 6.1783C5.83786 6.02 5.83785 5.779 5.68339 5.62069L5.6824 5.61969C5.52794 5.46239 5.29278 5.46239 5.13831 5.61969C5.06059 5.69833 5.02221 5.79916 5.02221 5.89898L5.0232 5.89901Z" fill="currentColor"/>
</svg>
